HIERARCHY
ROOT Hips
{
	OFFSET 0.000000 71.427986 0.000000
	CHANNELS 6 Xposition Yposition Zposition Xrotation Yrotation Zrotation
	JOINT Pelvis
	{
		OFFSET 0.000000 0.000000 0.000000
		CHANNELS 3 Xrotation Yrotation Zrotation
		JOINT LeftUpLeg
		{
			OFFSET 6.797100 -2.508499 -1.318700
			CHANNELS 3 Xrotation Yrotation Zrotation
			JOINT LeftLeg
			{
				OFFSET 0.069008 -29.241863 0.690200
				CHANNELS 3 Xrotation Yrotation Zrotation
				JOINT LeftFoot
				{
					OFFSET -0.069008 -29.568123 -0.266800
					CHANNELS 3 Xrotation Yrotation Zrotation
					JOINT LeftToeBase
					{
						OFFSET 3.145500 -8.631000 16.059900
						CHANNELS 3 Xrotation Yrotation Zrotation
						End Site
						{
							OFFSET 0.000000 18.501587 0.000000
						}
					}
				}
			}
			JOINT Left_ShortSleeve
			{
				OFFSET 0.265923 -10.480953 1.153800
				CHANNELS 3 Xrotation Yrotation Zrotation
				End Site
				{
					OFFSET 1.725763 19.823879 0.000000
				}
			}
		}
		JOINT RightUpLeg
		{
			OFFSET -6.797100 -2.508499 -1.318700
			CHANNELS 3 Xrotation Yrotation Zrotation
			JOINT RightLeg
			{
				OFFSET -0.082453 -29.241932 0.688000
				CHANNELS 3 Xrotation Yrotation Zrotation
				JOINT RightFoot
				{
					OFFSET 0.082453 -29.568058 -0.264600
					CHANNELS 3 Xrotation Yrotation Zrotation
					JOINT RightToeBase
					{
						OFFSET -3.115300 -8.682800 16.113400
						CHANNELS 3 Xrotation Yrotation Zrotation
						End Site
						{
							OFFSET 0.000000 18.567114 0.000000
						}
					}
				}
			}
			JOINT Right_ShortSleeve
			{
				OFFSET -0.265923 -10.480953 1.153800
				CHANNELS 3 Xrotation Yrotation Zrotation
				End Site
				{
					OFFSET -1.725766 19.823910 0.000000
				}
			}
		}
	}
	JOINT Spine
	{
		OFFSET 0.000000 13.368103 0.470500
		CHANNELS 3 Xrotation Yrotation Zrotation
		JOINT Spine1
		{
			OFFSET 0.147000 13.837402 0.538800
			CHANNELS 3 Xrotation Yrotation Zrotation
			JOINT Spine2
			{
				OFFSET 0.168000 16.242897 -1.435500
				CHANNELS 3 Xrotation Yrotation Zrotation
				JOINT Neck
				{
					OFFSET 0.217200 18.631500 -1.679100
					CHANNELS 3 Xrotation Yrotation Zrotation
					JOINT Head
					{
						OFFSET 0.000000 6.599396 1.385900
						CHANNELS 3 Xrotation Yrotation Zrotation
						JOINT Hat
						{
							OFFSET -0.532200 27.220596 -10.096100
							CHANNELS 3 Xrotation Yrotation Zrotation
							End Site
							{
								OFFSET 0.000000 22.029861 0.000000
							}
						}
						JOINT HairD
						{
							OFFSET -10.777400 17.437393 -1.325900
							CHANNELS 3 Xrotation Yrotation Zrotation
							JOINT HairD1
							{
								OFFSET -3.290299 -11.051193 1.062200
								CHANNELS 3 Xrotation Yrotation Zrotation
								End Site
								{
									OFFSET 0.000000 11.579437 0.000000
								}
							}
						}
						JOINT HairB
						{
							OFFSET -10.777400 17.437393 1.467900
							CHANNELS 3 Xrotation Yrotation Zrotation
							JOINT HairB1
							{
								OFFSET -1.561200 -12.956299 3.590200
								CHANNELS 3 Xrotation Yrotation Zrotation
								End Site
								{
									OFFSET 0.000000 13.534866 0.000000
								}
							}
						}
						JOINT HairA
						{
							OFFSET 9.713100 17.437393 1.467900
							CHANNELS 3 Xrotation Yrotation Zrotation
							JOINT HairA1
							{
								OFFSET 1.561200 -12.956299 3.590200
								CHANNELS 3 Xrotation Yrotation Zrotation
								End Site
								{
									OFFSET 0.000000 13.534866 0.000000
								}
							}
						}
						JOINT HairC
						{
							OFFSET 9.713100 17.437393 -1.325900
							CHANNELS 3 Xrotation Yrotation Zrotation
							JOINT HairC1
							{
								OFFSET 3.290300 -11.051193 1.062200
								CHANNELS 3 Xrotation Yrotation Zrotation
								End Site
								{
									OFFSET 0.000000 11.579437 0.000000
								}
							}
						}
					}
				}
				JOINT LeftShoulder
				{
					OFFSET 5.101800 15.108002 -2.763700
					CHANNELS 3 Xrotation Yrotation Zrotation
					JOINT LeftArm
					{
						OFFSET 9.825497 2.506317 -1.597400
						CHANNELS 3 Xrotation Yrotation Zrotation
						JOINT LeftForeArm
						{
							OFFSET 21.966244 0.000000 0.000000
							CHANNELS 3 Xrotation Yrotation Zrotation
							JOINT LeftHand
							{
								OFFSET 33.879036 0.000000 0.000000
								CHANNELS 3 Xrotation Yrotation Zrotation
								JOINT LeftHandThumb1
								{
									OFFSET 6.715286 -2.359680 3.363841
									CHANNELS 3 Xrotation Yrotation Zrotation
									JOINT LeftHandThumb2
									{
										OFFSET 2.507072 -1.447464 1.447461
										CHANNELS 3 Xrotation Yrotation Zrotation
										JOINT LeftHandThumb3
										{
											OFFSET 2.898338 -1.673355 1.673357
											CHANNELS 3 Xrotation Yrotation Zrotation
											End Site
											{
												OFFSET -0.295959 3.727692 -0.131651
											}
										}
									}
								}
								JOINT LeftHandIndex1
								{
									OFFSET 14.190811 -0.254547 3.840278
									CHANNELS 3 Xrotation Yrotation Zrotation
									JOINT LeftHandIndex2
									{
										OFFSET 3.551727 0.000000 -0.000000
										CHANNELS 3 Xrotation Yrotation Zrotation
										JOINT LeftHandIndex3
										{
											OFFSET 2.894196 0.000000 0.000000
											CHANNELS 3 Xrotation Yrotation Zrotation
											End Site
											{
												OFFSET -1.000603 2.690872 0.366626
											}
										}
									}
								}
								JOINT LeftHandMiddle1
								{
									OFFSET 13.776489 0.000000 0.000000
									CHANNELS 3 Xrotation Yrotation Zrotation
									JOINT LeftHandMiddle2
									{
										OFFSET 3.438232 0.000000 0.000000
										CHANNELS 3 Xrotation Yrotation Zrotation
										JOINT LeftHandMiddle3
										{
											OFFSET 3.691551 0.000000 0.000000
											CHANNELS 3 Xrotation Yrotation Zrotation
											End Site
											{
												OFFSET -1.082298 3.499527 0.457670
											}
										}
									}
								}
								JOINT LeftHandRing1
								{
									OFFSET 13.966164 -0.268127 -3.067488
									CHANNELS 3 Xrotation Yrotation Zrotation
									JOINT LeftHandRing2
									{
										OFFSET 3.162567 0.000000 0.000000
										CHANNELS 3 Xrotation Yrotation Zrotation
										JOINT LeftHandRing3
										{
											OFFSET 3.324348 0.000000 0.000000
											CHANNELS 3 Xrotation Yrotation Zrotation
											End Site
											{
												OFFSET -0.861900 3.184998 0.405154
											}
										}
									}
								}
								JOINT LeftHandPinky1
								{
									OFFSET 13.131393 -0.168503 -5.746925
									CHANNELS 3 Xrotation Yrotation Zrotation
									JOINT LeftHandPinky2
									{
										OFFSET 2.849182 0.000000 0.000000
										CHANNELS 3 Xrotation Yrotation Zrotation
										JOINT LeftHandPinky3
										{
											OFFSET 2.805038 0.000000 0.000000
											CHANNELS 3 Xrotation Yrotation Zrotation
											End Site
											{
												OFFSET -0.882500 2.642609 0.325652
											}
										}
									}
								}
							}
							JOINT Left_Sleeve
							{
								OFFSET 6.592125 -0.646545 0.805568
								CHANNELS 3 Xrotation Yrotation Zrotation
								End Site
								{
									OFFSET -0.000179 20.275787 -0.000000
								}
							}
						}
					}
				}
				JOINT RightShoulder
				{
					OFFSET -5.731700 15.108002 -2.763700
					CHANNELS 3 Xrotation Yrotation Zrotation
					JOINT RightArm
					{
						OFFSET -9.825497 2.506317 -1.597400
						CHANNELS 3 Xrotation Yrotation Zrotation
						JOINT RightForeArm
						{
							OFFSET -21.966242 0.000000 0.000000
							CHANNELS 3 Xrotation Yrotation Zrotation
							JOINT RightHand
							{
								OFFSET -33.879032 0.000000 0.000000
								CHANNELS 3 Xrotation Yrotation Zrotation
								JOINT RightHandThumb1
								{
									OFFSET -6.715286 -2.359680 3.363841
									CHANNELS 3 Xrotation Yrotation Zrotation
									JOINT RightHandThumb2
									{
										OFFSET -2.507072 -1.447464 1.447461
										CHANNELS 3 Xrotation Yrotation Zrotation
										JOINT RightHandThumb3
										{
											OFFSET -2.898338 -1.673355 1.673357
											CHANNELS 3 Xrotation Yrotation Zrotation
											End Site
											{
												OFFSET 0.295959 3.727692 -0.131651
											}
										}
									}
								}
								JOINT RightHandIndex1
								{
									OFFSET -14.190811 -0.254547 3.840278
									CHANNELS 3 Xrotation Yrotation Zrotation
									JOINT RightHandIndex2
									{
										OFFSET -3.551727 0.000000 -0.000000
										CHANNELS 3 Xrotation Yrotation Zrotation
										JOINT RightHandIndex3
										{
											OFFSET -2.894196 0.000000 0.000000
											CHANNELS 3 Xrotation Yrotation Zrotation
											End Site
											{
												OFFSET 1.000603 2.690872 0.366626
											}
										}
									}
								}
								JOINT RightHandMiddle1
								{
									OFFSET -13.776489 0.000000 0.000000
									CHANNELS 3 Xrotation Yrotation Zrotation
									JOINT RightHandMiddle2
									{
										OFFSET -3.438232 0.000000 0.000000
										CHANNELS 3 Xrotation Yrotation Zrotation
										JOINT RightHandMiddle3
										{
											OFFSET -3.691551 0.000000 0.000000
											CHANNELS 3 Xrotation Yrotation Zrotation
											End Site
											{
												OFFSET 1.082298 3.499527 0.457670
											}
										}
									}
								}
								JOINT RightHandRing1
								{
									OFFSET -13.966164 -0.268127 -3.067488
									CHANNELS 3 Xrotation Yrotation Zrotation
									JOINT RightHandRing2
									{
										OFFSET -3.162567 0.000000 0.000000
										CHANNELS 3 Xrotation Yrotation Zrotation
										JOINT RightHandRing3
										{
											OFFSET -3.324348 0.000000 0.000000
											CHANNELS 3 Xrotation Yrotation Zrotation
											End Site
											{
												OFFSET 0.861900 3.184998 0.405154
											}
										}
									}
								}
								JOINT RightHandPinky1
								{
									OFFSET -13.131393 -0.168503 -5.746925
									CHANNELS 3 Xrotation Yrotation Zrotation
									JOINT RightHandPinky2
									{
										OFFSET -2.849182 0.000000 0.000000
										CHANNELS 3 Xrotation Yrotation Zrotation
										JOINT RightHandPinky3
										{
											OFFSET -2.805038 0.000000 0.000000
											CHANNELS 3 Xrotation Yrotation Zrotation
											End Site
											{
												OFFSET 0.882500 2.642609 0.325652
											}
										}
									}
								}
							}
							JOINT Right_Sleeve
							{
								OFFSET -6.592125 -0.646545 0.805568
								CHANNELS 3 Xrotation Yrotation Zrotation
								End Site
								{
									OFFSET 0.000179 20.275787 -0.000000
								}
							}
						}
					}
				}
				JOINT Bind_Right_JacketString
				{
					OFFSET -3.534800 11.969597 7.200700
					CHANNELS 3 Xrotation Yrotation Zrotation
					JOINT Bind_Right_JacketString1
					{
						OFFSET -0.319900 -6.102600 2.794100
						CHANNELS 3 Xrotation Yrotation Zrotation
						End Site
						{
							OFFSET 0.000000 6.719452 0.000000
						}
					}
				}
				JOINT Bind_Left_JacketString
				{
					OFFSET 2.904800 11.969597 7.200700
					CHANNELS 3 Xrotation Yrotation Zrotation
					JOINT Bind_Left_JacketString1
					{
						OFFSET 0.364800 -5.904503 3.186800
						CHANNELS 3 Xrotation Yrotation Zrotation
						End Site
						{
							OFFSET 0.000000 6.719513 0.000000
						}
					}
				}
				JOINT HairE
				{
					OFFSET 5.915200 17.612701 -11.592200
					CHANNELS 3 Xrotation Yrotation Zrotation
					JOINT HairE1
					{
						OFFSET 0.289200 -7.171898 -1.284500
						CHANNELS 3 Xrotation Yrotation Zrotation
						End Site
						{
							OFFSET 0.000000 7.291756 0.000000
						}
					}
				}
				JOINT HairF
				{
					OFFSET -0.864800 17.612701 -11.592200
					CHANNELS 3 Xrotation Yrotation Zrotation
					JOINT HairF1
					{
						OFFSET 0.000000 -14.087097 -2.127501
						CHANNELS 3 Xrotation Yrotation Zrotation
						End Site
						{
							OFFSET 0.000000 14.246841 0.000000
						}
					}
				}
				JOINT HairG
				{
					OFFSET -8.087700 17.612701 -11.592200
					CHANNELS 3 Xrotation Yrotation Zrotation
					JOINT HairG1
					{
						OFFSET -0.293600 -6.081398 -0.910100
						CHANNELS 3 Xrotation Yrotation Zrotation
						End Site
						{
							OFFSET 0.000000 6.156120 0.000000
						}
					}
				}
			}
		}
	}
	JOINT Pouch
	{
		OFFSET 0.000000 4.394501 10.847300
		CHANNELS 3 Xrotation Yrotation Zrotation
		End Site
		{
			OFFSET 0.000000 21.880577 0.000000
		}
	}
	JOINT Bag
	{
		OFFSET -13.229000 4.813004 -0.593300
		CHANNELS 3 Xrotation Yrotation Zrotation
		End Site
		{
			OFFSET 0.000000 21.880577 0.000000
		}
	}
	JOINT OccupyGuyFacialAnim_Joint
	{
		OFFSET 1.000000 -70.206398 -1.655000
		CHANNELS 3 Xrotation Yrotation Zrotation
		End Site
		{
			OFFSET 0.000000 21.880577 0.000000
		}
	}
}
MOTION
Frames: 4
Frame Time: 0.033333
-0.184334 70.913208 1.292244 -3.753516 -5.225729 -3.476010 -0.000000 -0.000000 -0.000000 -8.979992 15.119660 9.859130 13.253555 1.927301 4.199869 -1.497522 0.729355 -7.493727 0.000000 -0.000000 0.000000 -0.000000 0.000000 0.000000 3.969908 -10.245585 4.198445 5.930780 -9.782596 -3.282192 -5.615204 -1.683399 3.151423 0.000000 -0.000000 -0.000000 0.000000 -0.000002 -0.000000 3.301362 1.528902 2.441468 1.144421 0.366398 1.567460 1.122337 0.381694 1.563763 5.622626 -0.072173 0.454019 -7.550921 1.380751 -0.093020 -0.000000 -0.000000 -0.000000 -0.000000 -0.000000 -0.000000 -0.000000 -0.000000 -0.000000 -0.000000 -0.000000 -0.000000 -0.000000 -0.000000 -0.000000 -0.000000 -0.000000 -0.000000 -0.000000 -0.000000 -0.000000 -0.000000 -0.000000 -0.000000 -0.000000 -0.000000 -0.000000 1.037051 -17.443895 -12.331009 3.915816 -19.989402 -69.767589 0.000010 -1.453236 0.000022 -33.228454 -1.355030 -6.198199 -0.666863 2.158856 4.840967 11.850622 25.415045 17.053015 0.000002 -0.000002 -0.000003 0.011433 -0.974401 -7.591338 0.267897 1.752968 -17.376532 0.000001 -0.000002 -0.000000 -0.073114 2.677285 -15.697253 0.268774 1.755775 -17.405231 0.000002 0.000001 0.000004 0.141045 3.652528 -21.134149 0.386570 2.094651 -20.910460 -0.000001 0.000001 -0.000002 0.948731 5.545097 -27.129197 0.268795 1.755841 -17.405888 -0.000001 -0.000000 0.000003 0.000006 0.000000 -0.000000 1.189146 15.343547 14.708920 13.163553 27.549682 58.777849 -0.000004 6.689801 0.000017 -20.174055 -0.527497 6.791407 -1.654824 -0.153631 -4.220370 12.703973 -29.837545 -16.104444 -0.000002 -0.000003 -0.000002 0.056913 1.233687 6.825634 0.213823 -1.396364 17.411329 -0.000002 -0.000001 -0.000002 -0.133767 -2.214132 14.996601 0.214432 -1.398282 17.436117 -0.000000 -0.000001 0.000001 0.037191 -3.093915 20.462757 0.309488 -1.671037 20.984728 -0.000003 0.000003 0.000005 0.783414 -4.868517 26.474954 0.214421 -1.398287 17.435999 -0.000000 0.000000 -0.000001 0.000000 -0.000000 -0.000001 -0.000000 -0.000000 0.000000 -0.000000 -0.000000 0.000000 -0.000000 -0.000000 0.000000 -0.000000 -0.000000 0.000000 -0.000000 -0.000000 0.000000 -0.000000 -0.000000 0.000000 -0.000000 -0.000000 0.000000 -0.000000 -0.000000 0.000000 -0.000000 -0.000000 0.000000 -0.000000 -0.000000 0.000000 -0.000000 -0.000000 -0.000000 -0.000000 -0.000000 -0.000000 -0.000000 -0.000000 -0.000000 
-0.196238 70.906540 1.351366 -3.763211 -5.243368 -3.362388 -0.000000 -0.000000 -0.000000 -8.858731 15.168846 9.745141 13.204215 1.939852 4.189199 -1.537594 0.731077 -7.495992 0.000000 0.000001 -0.000000 0.000001 0.000000 -0.000000 3.748229 -10.269287 4.040145 6.422351 -9.856526 -3.281869 -5.893258 -1.689902 3.208687 0.000000 0.000000 0.000000 0.000000 0.000001 0.000000 3.275712 1.540219 2.431411 1.144421 0.366397 1.567460 1.122338 0.381695 1.563763 5.742505 -0.067780 0.454019 -7.536639 1.402535 -0.036772 0.000000 0.000000 0.000000 0.000000 0.000000 0.000000 0.000000 0.000000 0.000000 0.000000 0.000000 0.000000 0.000000 0.000000 0.000000 0.000000 0.000000 0.000000 0.000000 0.000000 0.000000 0.000000 0.000000 0.000000 0.000000 0.000000 0.000000 1.038500 -17.437565 -12.330580 3.902577 -20.021084 -69.742051 -0.000002 -1.453251 0.000007 -33.202004 -1.323021 -6.175580 -0.707842 2.168365 4.844291 11.855023 25.386474 17.047447 -0.000000 0.000001 0.000000 0.013100 -0.977341 -7.562907 0.267026 1.750179 -17.347974 0.000001 -0.000000 0.000002 -0.073260 2.674291 -15.668744 0.267897 1.752985 -17.376677 0.000000 -0.000001 -0.000001 0.140412 3.649640 -21.105568 0.385525 2.091921 -20.881896 -0.000001 0.000001 0.000001 0.947147 5.542611 -27.100572 0.267920 1.753055 -17.377308 -0.000000 -0.000001 0.000003 0.000002 0.000000 -0.000000 1.192985 15.329446 14.707909 13.153122 27.555570 58.776763 0.000006 6.670497 -0.000023 -20.189588 -0.539281 6.815736 -1.682246 -0.150528 -4.265743 12.709335 -29.800966 -16.097499 -0.000003 -0.000002 -0.000003 0.055748 1.232144 6.844472 0.213839 -1.396349 17.411365 -0.000001 0.000000 0.000002 -0.133779 -2.214127 14.996618 0.214437 -1.398284 17.436103 0.000001 -0.000001 0.000001 0.036828 -3.091891 20.437949 0.309494 -1.671032 20.984737 0.000001 0.000001 0.000000 0.781869 -4.866209 26.440960 0.214173 -1.397451 17.425418 0.000000 -0.000000 -0.000001 -0.000001 -0.000000 0.000001 -0.000000 -0.000000 0.000000 0.000000 -0.000000 -0.000000 -0.000000 -0.000000 0.000000 -0.000000 -0.000000 0.000000 -0.000000 -0.000000 0.000000 0.000000 -0.000000 0.000000 -0.000000 -0.000000 0.000000 -0.000000 -0.000000 0.000000 -0.000000 -0.000000 0.000000 0.000000 -0.000000 0.000000 -0.000000 -0.000000 -0.000000 -0.000000 -0.000000 -0.000000 -0.000000 -0.000000 -0.000000 
-0.200865 70.899185 1.419579 -3.774573 -5.271876 -3.244097 -0.000000 0.000000 -0.000000 -8.729921 15.224201 9.629752 13.173447 1.909086 4.162806 -1.586703 0.732532 -7.497510 0.000000 -0.000000 0.000000 0.000000 -0.000000 -0.000000 3.515997 -10.290488 3.867691 6.962199 -9.946178 -3.281708 -6.224541 -1.699492 3.280489 0.000000 0.000000 0.000000 -0.000000 -0.000000 -0.000000 3.256904 1.555224 2.413460 1.147789 0.366399 1.567460 1.125735 0.381694 1.563763 5.902571 -0.050652 0.454017 -8.022059 1.482467 0.028709 -0.000000 0.000000 0.000000 -0.000000 0.000000 0.000000 -0.000000 0.000000 0.000000 -0.000000 0.000000 0.000000 0.000000 0.000000 0.000000 -0.000000 0.000000 0.000000 0.000000 0.000000 0.000000 -0.000000 0.000000 0.000000 -0.000000 0.000000 0.000000 1.050943 -17.397820 -12.327790 3.854133 -20.068988 -69.724128 -0.000003 -1.453238 -0.000009 -33.196485 -1.319120 -6.164366 -0.829124 2.195916 4.864133 11.865857 25.304625 17.037193 -0.000000 0.000001 0.000000 0.017875 -0.985830 -7.480837 0.264517 1.742121 -17.265547 -0.000000 -0.000000 -0.000000 -0.073709 2.665662 -15.586417 0.265384 1.744924 -17.294215 0.000001 0.000001 0.000001 0.138552 3.641313 -21.023172 0.382528 2.084035 -20.799412 -0.000000 -0.000001 0.000001 0.942545 5.535438 -27.017788 0.265404 1.744999 -17.294893 -0.000001 -0.000000 0.000003 -0.000003 0.000000 0.000001 1.195827 15.275284 14.709226 13.115342 27.590930 58.760227 -0.000013 6.682943 0.000001 -20.249808 -0.535776 6.810334 -1.761062 -0.141175 -4.397729 12.724754 -29.695419 -16.077536 0.000000 -0.000002 -0.000000 0.052377 1.227665 6.899542 0.213824 -1.396350 17.411365 -0.000002 -0.000000 0.000000 -0.133773 -2.214127 14.996626 0.214434 -1.398283 17.436115 0.000003 0.000000 0.000001 0.035811 -3.085998 20.365623 0.309502 -1.671044 20.984737 0.000001 0.000001 -0.000003 0.777414 -4.859430 26.342037 0.213415 -1.395050 17.394419 0.000000 0.000000 -0.000005 -0.000000 -0.000001 -0.000000 -0.000000 0.000000 0.000000 -0.000000 0.000000 -0.000000 -0.000000 0.000000 -0.000000 -0.000000 0.000000 -0.000000 -0.000000 0.000000 0.000000 -0.000000 0.000000 0.000000 -0.000000 0.000000 -0.000000 -0.000000 0.000000 -0.000000 -0.000000 0.000000 0.000000 -0.000000 0.000000 0.000000 -0.000000 0.000000 -0.000000 -0.000000 0.000000 -0.000000 -0.000000 0.000000 -0.000000 
-0.197819 70.890030 1.489301 -3.758792 -5.312081 -3.121018 0.000000 0.000000 0.000000 -8.620529 15.268234 9.492069 13.135845 1.934817 4.157919 -1.601992 0.733927 -7.510524 -0.000000 -0.000000 0.000000 -0.000001 -0.000001 -0.000000 3.305438 -10.303503 3.672747 7.403868 -9.954533 -3.265056 -6.466539 -1.708588 3.348220 -0.000000 0.000000 -0.000000 -0.000000 0.000001 -0.000000 3.271527 1.577557 2.390399 1.160942 0.366398 1.567460 1.139083 0.381695 1.563763 6.001202 -0.022923 0.459814 -8.400903 1.622577 0.027761 -0.000000 0.000000 -0.000000 -0.000000 0.000000 -0.000000 -0.000000 0.000000 -0.000000 -0.000000 0.000000 -0.000000 -0.000000 0.000000 -0.000000 -0.000000 0.000000 -0.000000 -0.000000 0.000000 -0.000000 -0.000000 0.000000 -0.000000 -0.000000 0.000000 -0.000000 1.059781 -17.368978 -12.325779 3.891520 -20.083058 -69.709382 0.000002 -1.453240 -0.000005 -33.418630 -1.368491 -6.184653 -1.023372 2.241295 4.896469 11.884699 25.175109 17.015432 -0.000000 0.000001 0.000000 0.016280 -0.998220 -7.349443 0.260529 1.729262 -17.134105 0.000001 -0.000001 0.000001 -0.074388 2.651894 -15.455115 0.261391 1.732064 -17.162693 -0.000000 0.000001 0.000004 0.135629 3.628025 -20.891701 0.377753 2.071445 -20.667884 -0.000002 0.000000 -0.000002 0.935233 5.523991 -26.885759 0.261419 1.732141 -17.163463 -0.000002 -0.000002 -0.000001 0.000001 0.000000 0.000000 1.196517 15.220624 14.732711 13.167970 27.608045 58.696706 -0.000009 6.786402 0.000003 -20.513339 -0.420577 6.721806 -1.887251 -0.125373 -4.609505 12.749496 -29.524944 -16.045486 -0.000001 -0.000002 0.000000 0.046932 1.220422 6.988425 0.213822 -1.396362 17.411346 -0.000001 0.000000 -0.000003 -0.133773 -2.214135 14.996606 0.214431 -1.398286 17.436102 0.000003 -0.000001 -0.000001 0.034183 -3.076483 20.249057 0.309498 -1.671029 20.984750 0.000002 -0.000000 -0.000001 0.770232 -4.848494 26.182518 0.212195 -1.391165 17.344345 -0.000001 -0.000000 0.000004 0.000000 0.000000 -0.000000 -0.000000 0.000000 -0.000000 -0.000000 0.000000 -0.000000 -0.000000 0.000000 -0.000000 -0.000000 0.000000 -0.000000 -0.000000 0.000000 -0.000000 -0.000000 0.000000 -0.000000 -0.000000 0.000000 -0.000000 -0.000000 0.000000 -0.000000 -0.000000 0.000000 -0.000000 -0.000000 0.000000 -0.000000 0.000000 0.000000 0.000000 0.000000 0.000000 0.000000 0.000000 0.000000 0.000000 
